<?xml version="1.0" encoding="utf-8"?>
<!-- Generator: Adobe Illustrator 16.0.3, SVG Export Plug-In . SVG Version: 6.00 Build 0)  -->
<!DOCTYPE svg PUBLIC "-//W3C//DTD SVG 1.1//EN" "http://www.w3.org/Graphics/SVG/1.1/DTD/svg11.dtd">
<svg version="1.1" id="Capa_1" xmlns="http://www.w3.org/2000/svg" xmlns:xlink="http://www.w3.org/1999/xlink" x="0px" y="0px"
	 width="128px" height="128px" viewBox="0 0 128 128" enable-background="new 0 0 128 128" xml:space="preserve">
<g>
	<polygon points="32.173,101.558 31.423,98.808 32.923,94.808 31.423,93.976 30.339,88.308 31.631,85.308 36.089,82.726 
		37.339,82.226 35.256,78.392 35.339,72.808 38.006,67.226 44.006,60.809 47.673,60.309 48.673,58.059 54.673,52.476 74.339,38.309 
		84.506,29.309 88.423,26.226 91.089,25.393 93.673,22.559 96.923,22.059 98.923,22.559 100.506,23.893 100.506,32.393 
		98.006,41.059 95.923,43.059 95.339,45.226 92.006,50.643 86.256,58.059 83.756,62.642 81.673,63.642 81.589,65.808 74.756,77.226 
		70.173,86.226 66.006,92.142 61.339,95.892 57.423,97.226 52.506,96.558 51.173,95.892 50.173,95.726 49.089,98.226 45.839,99.558 
		43.423,99.392 43.423,98.142 42.089,98.058 40.339,99.642 37.173,101.558 33.839,102.392 	"/>
	<polygon fill="#232323" points="39.047,84.444 41.047,86.976 44.422,90.257 48.484,92.882 47.203,94.413 45.516,95.663 
		43.766,94.132 41.797,94.632 40.328,96.257 38.016,98.163 36.016,98.632 35.391,97.976 35.797,96.632 37.141,93.132 38.828,91.538 
		40.047,90.507 39.953,88.819 38.984,88.257 37.703,89.226 35.641,90.882 34.141,91.069 34.859,88.351 35.797,86.632 37.766,85.163 
			"/>
	<polygon fill="#717171" points="57.047,93.663 52.547,92.913 47.422,89.913 40.297,82.163 39.359,77.976 39.359,74.976 
		40.297,70.851 42.234,67.163 45.047,64.413 46.173,64.017 47.631,64.017 47.923,67.058 49.256,68.517 50.423,68.976 50.214,67.351 
		50.173,63.808 50.589,61.434 58.173,54.476 68.089,46.809 75.339,41.476 82.173,35.976 86.006,32.226 90.839,29.143 92.391,28.226 
		93.609,28.632 94.359,29.069 95.203,28.507 95.016,27.788 94.891,27.038 95.797,26.444 96.891,26.444 97.453,27.976 97.453,31.601 
		96.859,33.319 96.078,35.351 95.266,37.476 93.797,40.101 91.859,40.444 90.484,39.882 88.141,39.569 85.859,40.101 86.547,40.851 
		88.172,41.163 89.734,42.038 91.203,42.976 91.047,45.444 88.141,49.976 86.641,52.226 84.234,55.851 82.484,58.257 81.391,60.054 
		78.922,60.413 77.203,59.788 76.109,59.663 75.797,60.288 76.453,61.819 77.984,62.694 78.953,62.882 76.422,66.913 72.797,72.476 
		69.859,77.319 65.609,84.163 62.078,89.819 59.609,92.351 	"/>
	<polyline fill="#5F5F5F" points="50.213,67.196 52.034,63.651 55.13,60.352 62.13,54.31 68.755,49.518 71.255,47.352 
		79.589,40.935 81.714,39.018 85.756,35.185 89.089,32.018 90.714,29.727 91.018,29.037 86.006,32.226 82.173,35.976 75.339,41.476 
		66.782,47.819 60.135,52.958 52.093,60.054 50.589,61.434 50.173,63.808 50.213,67.196 	"/>
	<polygon fill="#5F5F5F" points="44.089,70.935 42.964,74.351 42.589,77.851 44.422,82.56 48.484,87.06 53.755,90.685 
		56.922,92.101 59.609,92.351 57.047,93.663 52.547,92.913 47.422,89.913 40.297,82.163 39.359,77.976 39.359,74.976 40.297,70.851 
		42.234,67.163 45.047,64.413 46.173,64.017 47.631,64.017 47.923,67.058 49.256,68.517 47.276,68.955 45.589,68.455 	"/>
	<polygon fill="#5F5F5F" points="63.484,64.976 63.078,66.507 64.078,68.851 65.609,69.288 67.32,68.849 68.215,67.917 
		66.578,67.694 64.578,65.976 63.953,64.694 	"/>
	<polygon fill="#5F5F5F" points="74.214,46.851 73.797,47.143 73.38,48.476 73.797,49.851 74.964,51.101 77.047,51.601 
		78.13,50.768 76.964,49.976 75.047,47.768 	"/>
	<polygon fill="#5F5F5F" points="75.703,62.569 75.891,64.017 76.517,64.767 77.664,64.936 78.953,62.882 77.984,62.694 
		76.453,61.819 76.145,61.099 	"/>
	<polygon fill="#5F5F5F" points="86.547,40.851 86.547,42.163 87.673,43.913 89.548,44.955 91.018,45.489 91.203,42.976 
		88.172,41.163 	"/>
	<polygon points="63.953,64.694 64.578,65.976 66.578,67.694 68.215,67.917 69.734,67.196 66.844,65.837 64.672,63.017 	"/>
	<polygon points="76.078,45.663 76.484,47.351 78.234,49.226 79.547,49.882 78.672,50.601 78.13,50.768 76.964,49.976 
		74.214,46.851 75.078,45.819 	"/>
</g>
</svg>
