<?xml version="1.0" encoding="utf-8"?>
<!-- Generator: Adobe Illustrator 16.0.3, SVG Export Plug-In . SVG Version: 6.00 Build 0)  -->
<!DOCTYPE svg PUBLIC "-//W3C//DTD SVG 1.1//EN" "http://www.w3.org/Graphics/SVG/1.1/DTD/svg11.dtd">
<svg version="1.1" id="Capa_1" xmlns="http://www.w3.org/2000/svg" xmlns:xlink="http://www.w3.org/1999/xlink" x="0px" y="0px"
	 width="128px" height="128px" viewBox="0 0 128 128" enable-background="new 0 0 128 128" xml:space="preserve">
<g>
	<polygon points="30.75,96.908 30,94.158 31.5,90.158 30,89.325 28.916,83.658 30.208,80.658 34.666,78.075 35.916,77.575 
		33.833,73.743 33.916,68.158 36.583,62.575 42.583,56.158 46.25,55.658 47.25,53.408 53.25,47.825 72.916,33.658 83.083,24.658 
		87,21.575 89.666,20.742 92.25,17.908 95.5,17.408 97.5,17.908 99.083,19.242 99.083,27.742 96.583,36.408 94.5,38.408 
		93.916,40.575 90.583,45.992 84.833,53.408 82.333,57.992 80.25,58.992 80.166,61.158 73.333,72.575 68.75,81.575 64.583,87.493 
		59.916,91.243 56,92.575 51.083,91.908 49.75,91.243 48.75,91.075 47.666,93.575 44.416,94.908 42,94.743 42,93.493 40.666,93.408 
		38.916,94.993 35.75,96.908 32.416,97.743 	"/>
	<polygon fill="#1E4113" points="37.624,79.794 39.624,82.325 42.999,85.606 47.062,88.231 45.78,89.763 44.093,91.013 
		42.343,89.481 40.374,89.981 38.905,91.606 36.593,93.513 34.593,93.981 33.968,93.325 34.374,91.981 35.718,88.481 37.405,86.888 
		38.624,85.856 38.53,84.169 37.562,83.606 36.28,84.575 34.218,86.231 32.718,86.419 33.437,83.7 34.374,81.981 36.343,80.513 	"/>
	<polygon fill="#BA7428" points="55.624,89.013 51.124,88.263 45.999,85.263 38.874,77.513 37.937,73.325 37.937,70.325 
		38.874,66.2 40.812,62.513 43.624,59.763 44.75,59.367 46.208,59.367 46.5,62.408 47.833,63.868 49,64.325 48.791,62.7 
		48.75,59.158 49.166,56.783 56.75,49.825 66.666,42.158 73.916,36.825 80.75,31.325 84.583,27.575 89.416,24.492 90.968,23.575 
		92.187,23.981 92.937,24.419 93.78,23.856 93.593,23.138 93.468,22.388 94.374,21.794 95.468,21.794 96.03,23.325 96.03,26.95 
		95.437,28.669 94.655,30.7 93.843,32.825 92.374,35.45 90.437,35.794 89.062,35.231 86.718,34.919 84.437,35.45 85.124,36.2 
		86.749,36.513 88.312,37.388 89.78,38.325 89.624,40.794 86.718,45.325 85.218,47.575 82.812,51.2 81.062,53.606 79.968,55.403 
		77.499,55.763 75.78,55.138 74.687,55.013 74.374,55.638 75.03,57.169 76.562,58.044 77.53,58.231 74.999,62.262 71.374,67.825 
		68.437,72.669 64.187,79.513 60.655,85.169 58.187,87.7 	"/>
	<polyline fill="#9C6224" points="48.79,62.546 50.611,59.001 53.707,55.701 60.707,49.659 67.332,44.867 69.832,42.701 
		78.166,36.284 80.291,34.367 84.333,30.534 87.666,27.367 89.291,25.076 89.595,24.387 84.583,27.575 80.75,31.325 73.916,36.825 
		65.359,43.169 58.712,48.308 50.67,55.403 49.166,56.783 48.75,59.158 48.79,62.546 	"/>
	<polygon fill="#9C6224" points="42.666,66.284 41.541,69.701 41.166,73.201 42.999,77.909 47.062,82.409 52.332,86.034 
		55.499,87.451 58.187,87.7 55.624,89.013 51.124,88.263 45.999,85.263 38.874,77.513 37.937,73.325 37.937,70.325 38.874,66.2 
		40.812,62.513 43.624,59.763 44.75,59.367 46.208,59.367 46.5,62.408 47.833,63.868 45.854,64.304 44.166,63.804 	"/>
	<polygon fill="#9C6224" points="62.062,60.325 61.655,61.856 62.655,64.2 64.187,64.638 65.897,64.199 66.792,63.267 
		65.155,63.044 63.155,61.325 62.53,60.044 	"/>
	<polygon fill="#9C6224" points="72.791,42.2 72.374,42.492 71.957,43.825 72.374,45.2 73.541,46.45 75.624,46.95 76.707,46.117 
		75.541,45.325 73.624,43.117 	"/>
	<polygon fill="#9C6224" points="74.28,57.919 74.468,59.367 75.094,60.116 76.241,60.285 77.53,58.231 76.562,58.044 75.03,57.169 
		74.722,56.448 	"/>
	<polygon fill="#9C6224" points="85.124,36.2 85.124,37.513 86.25,39.263 88.125,40.305 89.595,40.839 89.78,38.325 86.749,36.513 	
		"/>
	<polygon points="62.53,60.044 63.155,61.325 65.155,63.044 66.792,63.267 68.312,62.546 65.421,61.187 63.249,58.366 	"/>
	<polygon points="74.655,41.013 75.062,42.7 76.812,44.575 78.124,45.231 77.249,45.95 76.707,46.117 75.541,45.325 72.791,42.2 
		73.655,41.169 	"/>
</g>
</svg>
