<?xml version="1.0" encoding="utf-8"?>
<!-- Generator: Adobe Illustrator 16.0.3, SVG Export Plug-In . SVG Version: 6.00 Build 0)  -->
<!DOCTYPE svg PUBLIC "-//W3C//DTD SVG 1.1//EN" "http://www.w3.org/Graphics/SVG/1.1/DTD/svg11.dtd">
<svg version="1.1" id="Capa_1" xmlns="http://www.w3.org/2000/svg" xmlns:xlink="http://www.w3.org/1999/xlink" x="0px" y="0px"
	 width="128px" height="128px" viewBox="0 0 128 128" enable-background="new 0 0 128 128" xml:space="preserve">
<g>
	<polygon points="13.518,91.979 13.518,88.229 46.768,35.104 49.143,33.823 50.799,33.823 50.799,30.792 53.226,27.813 
		56.174,25.854 63.06,25.313 72.06,25.313 80.56,25.854 87.06,28.604 92.601,30.854 96.851,32.854 103.393,36.521 109.727,43.063 
		113.894,48.729 116.227,52.396 117.56,54.729 117.56,57.396 113.33,66.604 111.955,67.916 111.893,69.854 112.455,70.229 
		112.58,73.354 98.226,100.479 94.518,99.104 90.705,99.229 89.018,100.479 87.893,100.479 85.455,98.791 80.768,98.791 
		79.33,100.166 77.518,98.041 69.893,97.916 69.268,98.979 68.205,98.979 67.185,97.688 63.393,96.771 60.435,97.104 58.31,98.563 
		57.435,98.813 54.31,95.979 50.101,95.521 49.101,94.063 45.893,93.604 42.601,93.646 41.185,94.688 39.31,94.771 36.143,92.729 
		26.476,92.604 24.018,90.854 17.061,90.799 	"/>
	<path fill="#999999" d="M64.674,28.917h11.125l4.75,1.875l4.375,2l4.875,3.219l4.375,3.031l3.656,4.063l3.479,5l0.396,2.031v6.303
		l-9.729,19.083l-1.865,0.113l-1.266-0.594l-1.188-0.844l-1.422-0.063l-1.031,0.328l-0.719-0.484l-0.906-1.063l-0.719-1.641
		l-0.172,1.672l0.859,1.484l1.49,1.068l1.354-0.24l0.828,0.234l-0.453,0.859l-0.172,2.219l-0.094,1.188l-0.75,0.703l-0.828,0.359
		l-1.516,0.109l-1.031-0.469l0.141,0.484l0.516,0.422l0.906,0.078l2.313-0.219l0.953-0.516l0.484-0.719l0.172-1.313l0.469-1.641
		l0.844-0.406h1.25l0.489,0.699l-0.286,1.691L80.264,99.273l-0.934,0.893L77.158,98.4l-7.266-0.484l-0.766,0.719l-0.922,0.344
		l-1.021-1.291l-3.792-0.916l-2.958,0.332l-2.125,1.459l-0.875,0.25l-3.125-2.834l-4.209-0.457l-1-1.459l-3.208-0.459l-3.292,0.043
		l-1.416,1.041l-1.875,0.084l-3.167-2.043l-9.667-0.125l-2.458-1.75l-6.957-0.055l6.291-10.027l0.792,2.957l2.25,4.875l3.583,0.25
		l3.958-0.375l2.167-0.707l2.5,0.125l2.458,0.791l-1.583-1.791l-1.875-0.543l-1.522-0.125l-1.521,0.334l1.677-2.24l1-1.594
		l1.407-1.291l4.375,0.291l3.291,0.125l1.5-0.75l-2.916-0.207l-3.417-1.293l-1.667-0.916l-2.25,0.125l-1.854,3.041l-2.5,3
		l-0.719,1.5l-2.656,0.219l-2.219-0.375l-1.342-4.051l-0.908-4.105l21.594-35.916l1.563-2.084l0.813-1.438l1.125-1.125l1.875-0.625
		l1.563,0.188l0.813,1.125l0.188,2.625l-1.375,3.875l-1.906,1.375l-2.406,3.156l0.031,4.875l1.188,1.625l2.313,1.281l-1.188-1.938
		l-0.906-1.875l0.344-3.563l3-3.125l0.906,0.219c0,0,1.313,1.188,1.375,1.188s1.969,0.906,2.094,1.188
		c0.03,0.069,0.656,1.688,0.656,1.688l0.259-1.467c0,0-0.059-1.188-0.351-1.168s-1.221-0.771-1.221-0.771l-1.281-0.969l-0.813-1.031
		l0.875-2.563l0.531-3.75l-0.344-2.469c0,0-0.594-2.135-0.906-2.135s-1.063-0.459-1.063-0.459c-0.417-0.833-0.063-1.291-0.063-1.291
		l0.891-2.475l3.25-1.063L64.674,28.917z"/>
	<polyline fill="#737373" points="93.518,35.917 99.518,38.792 104.08,42.729 108.205,47.354 110.768,51.292 112.33,54.979 
		112.893,57.417 110.455,63.604 105.33,68.166 102.58,70.854 101.018,72.479 100.893,74.166 99.455,75.916 96.549,76.488 
		94.111,76.635 104.33,56.71 104.705,52.167 104.455,48.417 102.705,45.104 100.518,42.167 97.518,39.667 93.518,36.167 	"/>
	<polygon fill="#737373" points="107.643,73.979 105.935,74.979 102.643,79.938 95.976,80.646 95.976,84.729 96.476,86.063 
		96.56,88.313 94.768,89.771 92.935,91.021 91.476,92.313 92.018,90.854 93.101,89.021 94.768,87.896 95.101,86.396 94.185,84.229 
		93.935,82.021 94.226,80.479 93.185,80.021 84.268,96.396 82.935,98.791 85.455,98.791 87.893,100.479 89.018,100.479 
		90.705,99.229 94.518,99.104 95.441,99.447 107.643,75.729 	"/>
	<polygon fill="#4D4D4D" points="107.101,69.604 108.56,69.604 108.935,71.479 107.101,72.563 105.56,73.02 103.893,73.979 
		103.435,76.229 102.643,77.813 100.685,78.521 99.268,78.271 101.31,77.104 102.56,75.27 102.851,73.104 105.018,71.104 	"/>
	<polyline fill="none" stroke="#000000" stroke-miterlimit="10" points="10.439,94.76 13.518,91.979 17.061,90.799 20.268,90.447 
		24.018,90.854 26.476,92.604 31.518,92.197 36.143,92.729 39.31,94.771 41.185,94.688 42.601,93.646 45.799,93.479 49.101,94.063 
		50.101,95.521 54.31,95.979 57.435,98.813 58.408,98.197 60.424,97.26 63.486,96.994 67.185,97.688 68.205,98.979 69.455,98.244 
		72.361,97.807 76.783,98.354 79.33,100.166 81.361,98.588 84.096,98.275 86.221,99.01 87.893,100.479 89.018,100.479 
		90.705,99.229 94.518,99.104 98.226,100.479 99.436,101.666 	"/>
	<polyline fill="none" stroke="#000000" stroke-miterlimit="10" points="22.893,95.625 25.351,93.355 26.476,92.604 	"/>
	<line fill="none" stroke="#000000" stroke-miterlimit="10" x1="38.705" y1="97.209" x2="41.185" y2="94.688"/>
	<polyline fill="none" stroke="#000000" stroke-miterlimit="10" points="47.747,98.084 49.206,96.375 50.101,95.521 54.31,95.979 
		57.435,98.813 58.122,101.229 	"/>
	<polyline fill="none" stroke="#000000" stroke-miterlimit="10" points="66.589,101.719 67.908,99.385 69.56,98.229 	"/>
	<polyline fill="none" stroke="#000000" stroke-miterlimit="10" points="89.018,100.479 87.351,101.959 86.83,102.688 	"/>
</g>
</svg>
